<?xml version="1.0" standalone="no"?>
<!DOCTYPE svg PUBLIC "-//W3C//DTD SVG 20010904//EN"
 "http://www.w3.org/TR/2001/REC-SVG-20010904/DTD/svg10.dtd">
<svg version="1.0" xmlns="http://www.w3.org/2000/svg"
 width="376.000000pt" height="376.000000pt" viewBox="0 0 376.000000 376.000000"
 preserveAspectRatio="xMidYMid meet">
<metadata>
Created by potrace 1.11, written by Peter Selinger 2001-2013
</metadata>
<g transform="translate(0.000000,376.000000) scale(0.100000,-0.100000)"
fill="#000000" stroke="none">
<path d="M855 3518 c-67 -18 -156 -83 -191 -141 -62 -103 -58 1 -59 -1622 l0
-1490 1155 0 1155 0 57 28 c31 15 74 45 94 65 21 20 40 36 44 35 4 -1 7 3 7
10 1 7 13 39 27 72 l26 60 0 1498 0 1497 -1137 -1 c-746 -1 -1152 -5 -1178
-11z"/>
</g>
</svg>
